# Blender v2.79 (sub 0) OBJ File: 'house2.blend'
# www.blender.org
mtllib house.mtl
o Cube
v 2.750000 0.007762 -2.750000
v 2.750000 0.007762 2.750000
v -2.750000 0.007762 2.750000
v -2.749999 0.007762 -2.750001
v 2.750001 6.636990 -2.749999
v 2.749998 6.636990 2.750002
v -2.750001 6.636990 2.749999
v -2.750000 6.636990 -2.750000
v 0.000000 0.007762 -2.750000
v 0.000000 0.007762 2.750000
v 0.000001 6.636990 -2.749999
v -0.000001 6.636990 2.750000
v 3.041555 6.636990 -3.041552
v 3.041552 6.636990 3.041555
v 0.000001 6.636990 -3.041552
v -3.041553 6.636990 -3.041553
v -0.000002 6.636990 3.041553
v -3.041554 6.636990 3.041552
v 3.041555 6.963340 -3.041552
v 3.041552 6.963340 3.041555
v 0.000001 9.033628 -2.269759
v -3.041553 6.963340 -3.041553
v -0.000002 9.033628 2.269761
v -3.041554 6.963340 3.041552
v -0.000001 6.963340 3.041553
v -0.000001 6.636990 3.041553
v 2.750000 0.007762 -0.923324
v -2.750000 0.007762 -0.923324
v 2.750000 6.636990 -0.923324
v -2.750000 6.636990 -0.923324
v 0.000000 0.007762 -0.923324
v 3.041554 6.636990 -0.923324
v -3.041553 6.636990 -0.923324
v 3.041554 6.963340 -0.923324
v -1.928723 7.720808 -1.120510
v -1.112830 8.276161 -1.120510
v -2.749999 0.007762 -2.142627
v -2.750000 6.636990 -2.142627
v 0.000000 0.007762 -2.142627
v -3.041553 6.636990 -2.142627
v -1.928723 7.720808 -1.945442
v 2.750000 0.007762 -2.142627
v 2.750001 6.636990 -2.142627
v 3.041555 6.636990 -2.142627
v 3.041555 6.963340 -2.142627
v -1.112830 8.276161 -1.945442
v 0.000000 9.033628 -2.142627
v -0.000000 9.033628 -0.923324
v -3.041553 6.963340 -0.923324
v -3.041553 6.963340 -2.142627
v -1.112830 8.613589 -1.945442
v -1.112830 8.613589 -1.120510
v -1.928723 8.613589 -1.120510
v -1.928723 8.613589 -1.945442
v -0.981116 8.613589 -2.078615
v -0.981116 8.613589 -0.987337
v -2.060437 8.613589 -0.987337
v -2.060437 8.613589 -2.078615
v -0.981116 8.931286 -2.078615
v -0.981116 8.931286 -0.987337
v -2.060437 8.931286 -0.987337
v -2.060437 8.931286 -2.078615
v -1.285588 8.931286 -1.770769
v -1.285588 8.931286 -1.295182
v -1.755965 8.931286 -1.295182
v -1.755965 8.931286 -1.770769
v -1.285588 7.584568 -1.770769
v -1.285588 7.584568 -1.295182
v -1.755965 7.584568 -1.295182
v -1.755965 7.584568 -1.770769
v 2.750001 3.322376 -2.749999
v 2.749999 3.322376 2.750001
v -2.750001 3.322376 2.749999
v -2.749999 3.322376 -2.750001
v 0.000001 3.322376 -2.750000
v -0.000001 3.322376 2.750000
v -2.750000 3.322376 -0.923324
v 2.750000 3.322376 -0.923324
v 2.750001 3.322376 -2.142627
v -2.750000 3.322376 -2.142627
v 2.750001 3.560070 -2.749999
v 2.749999 3.560070 2.750001
v -2.750001 3.560070 2.749999
v -2.750000 3.560070 -2.750001
v 0.000001 3.560070 -2.750000
v -0.000001 3.560070 2.750000
v -2.750000 3.560070 -0.923324
v 2.750000 3.560070 -0.923324
v 2.750001 3.560070 -2.142627
v -2.750000 3.560070 -2.142627
v -0.000001 3.560070 4.287752
v -0.000001 3.322376 4.287752
v 2.749999 3.322376 4.287752
v -2.750001 3.322376 4.287752
v 2.749998 3.560070 4.287752
v -2.750001 3.560070 4.287752
v -0.000000 0.391344 2.750000
v -2.750000 0.391344 -0.923324
v 2.750000 0.391344 -0.923324
v 2.750000 0.391344 -2.142627
v -2.749999 0.391344 -2.142627
v 2.750000 0.391344 -2.750000
v 2.750000 0.391344 2.750000
v -2.750000 0.391344 2.750000
v -2.749999 0.391344 -2.750001
v 0.000001 0.391344 -2.750000
v -0.000000 0.007762 4.287752
v -2.750000 0.007762 4.287752
v 2.750000 0.007762 4.287752
v -0.000000 0.391344 4.287752
v 2.750000 0.391344 4.287752
v -2.750000 0.391344 4.287752
v -0.000001 3.560070 4.690428
v -0.000001 3.322376 4.690428
v 2.749999 3.322376 4.690428
v -2.750001 3.322376 4.690428
v 2.749998 3.560070 4.690428
v -2.750001 3.560070 4.690428
v -0.000000 0.007762 4.690428
v -2.750000 0.007762 4.690428
v 2.750000 0.007762 4.690428
v -0.000000 0.391344 4.690428
v 2.750000 0.391344 4.690428
v -2.750000 0.391344 4.690428
v -2.294078 0.007762 -2.750001
v -2.294079 0.007762 2.750000
v -2.294079 6.636990 -2.750000
v -2.294080 6.636990 2.749999
v -2.537295 6.636990 -3.041553
v -2.537297 6.636990 3.041553
v -2.294078 0.007762 -0.923324
v -2.294078 0.007762 -2.142627
v -2.294078 3.322376 -2.750001
v -2.294080 3.322376 2.750000
v -2.294078 3.560070 -2.750001
v -2.294080 3.560070 2.750000
v -2.294080 3.322376 4.287752
v -2.294080 3.560070 4.287752
v -2.294079 0.391344 2.750000
v -2.294078 0.391344 -2.750001
v -2.294079 0.007762 4.287752
v -2.294079 0.391344 4.287752
v -2.294080 3.322376 4.690428
v -2.294080 3.560070 4.690428
v -2.294079 0.007762 4.690428
v -2.294079 0.391344 4.690428
v 2.291667 0.007762 -2.750000
v 2.291667 0.007762 2.750000
v 2.291668 6.636990 -2.749999
v 2.291665 6.636990 2.750001
v 2.534629 6.636990 -3.041552
v 2.534626 6.636990 3.041555
v 2.291667 0.007762 -0.923324
v 2.291667 0.007762 -2.142627
v 2.291666 3.322376 2.750001
v 2.291667 3.322376 -2.749999
v 2.291667 3.560070 -2.749999
v 2.291666 3.560070 2.750001
v 2.291666 3.322376 4.287752
v 2.291665 3.560070 4.287752
v 2.291667 0.391344 2.750000
v 2.291667 0.391344 -2.750000
v 2.291667 0.007762 4.287752
v 2.291667 0.391344 4.287752
v 2.291666 3.322376 4.690428
v 2.291665 3.560070 4.690428
v 2.291667 0.007762 4.690428
v 2.291667 0.391344 4.690428
v 0.000001 6.963340 -3.041552
vt 0.628354 0.419864
vt 0.498041 0.419864
vt 0.498041 0.403690
vt 0.628354 0.403690
vt 0.928332 0.419864
vt 0.928332 0.403690
vt 0.938675 0.393347
vt 0.938675 0.411236
vt 0.628354 0.724826
vt 0.628354 0.833982
vt 0.498041 0.833982
vt 0.498041 0.724826
vt 0.175435 0.799206
vt 0.175435 0.908362
vt 0.159261 0.908362
vt 0.159261 0.799206
vt 0.671610 0.277670
vt 0.671610 0.168515
vt 0.693157 0.168515
vt 0.693157 0.277670
vt 0.706764 0.419864
vt 0.693156 0.419864
vt 0.693156 0.403690
vt 0.706764 0.403690
vt 0.706764 0.582546
vt 0.693156 0.582546
vt 0.693156 0.501248
vt 0.706764 0.501248
vt 0.338117 0.799206
vt 0.338117 0.908362
vt 0.256819 0.908362
vt 0.256819 0.799206
vt 0.628354 0.168515
vt 0.498041 0.168514
vt 0.487698 0.158171
vt 0.628354 0.158171
vt 0.628354 0.582546
vt 0.498041 0.582547
vt 0.498041 0.501248
vt 0.628354 0.501248
vt 0.822732 0.734367
vt 0.930633 0.734367
vt 0.930633 0.745944
vt 0.822732 0.745944
vt 0.928332 0.582546
vt 0.928332 0.501248
vt 0.938675 0.501248
vt 0.938675 0.591165
vt 0.256819 0.918705
vt 0.166807 0.918705
vt 0.671610 0.833982
vt 0.693157 0.833982
vt 0.703500 0.844325
vt 0.671610 0.844325
vt 0.354377 0.908362
vt 0.364720 0.918705
vt 0.346737 0.918705
vt 0.628354 0.016069
vt 0.628354 0.146594
vt 0.487698 0.146594
vt 0.515078 0.016069
vt 0.628354 0.855902
vt 0.628354 0.986427
vt 0.515078 0.986427
vt 0.487698 0.855902
vt 0.703500 0.855902
vt 0.671610 0.855902
vt 0.714831 0.734367
vt 0.714831 0.745944
vt 0.822732 0.655985
vt 0.671610 0.158171
vt 0.671610 0.146594
vt 0.487698 0.844325
vt 0.628354 0.844325
vt 0.671610 0.986427
vt 0.278596 0.320421
vt 0.249331 0.320421
vt 0.249331 0.308451
vt 0.278596 0.308451
vt 0.671610 0.582546
vt 0.671610 0.501248
vt 0.498041 0.277670
vt 0.628354 0.277670
vt 0.671610 0.724826
vt 0.671610 0.419864
vt 0.671610 0.403690
vt 0.693157 0.724826
vt 0.703500 0.158171
vt 0.676119 0.016069
vt 0.703500 0.146594
vt 0.671609 0.016069
vt 0.676120 0.986427
vt 0.664614 0.063825
vt 0.635349 0.063825
vt 0.635349 0.098838
vt 0.664614 0.098838
vt 0.180836 0.240059
vt 0.180836 0.211115
vt 0.185561 0.206442
vt 0.185561 0.244732
vt 0.168866 0.240059
vt 0.149164 0.211115
vt 0.378763 0.211115
vt 0.359061 0.240059
vt 0.347091 0.240059
vt 0.347091 0.211115
vt 0.249331 0.111052
vt 0.278596 0.111052
vt 0.278596 0.142724
vt 0.249331 0.142724
vt 0.244607 0.147396
vt 0.283321 0.147396
vt 0.283321 0.158667
vt 0.244607 0.158667
vt 0.342367 0.244732
vt 0.342367 0.206442
vt 0.244607 0.303778
vt 0.283321 0.303778
vt 0.196831 0.244732
vt 0.196831 0.206442
vt 0.207752 0.217244
vt 0.207752 0.233931
vt 0.244607 0.292508
vt 0.283321 0.292508
vt 0.331096 0.244732
vt 0.331096 0.206442
vt 0.320175 0.217244
vt 0.320175 0.233931
vt 0.272400 0.233931
vt 0.272400 0.217244
vt 0.272400 0.169468
vt 0.255528 0.169468
vt 0.255528 0.281706
vt 0.272400 0.281706
vt 0.255528 0.233931
vt 0.255528 0.217244
vt 0.628354 0.390083
vt 0.628354 0.286102
vt 0.671610 0.286102
vt 0.671610 0.390083
vt 0.693157 0.612414
vt 0.693157 0.716394
vt 0.671610 0.716394
vt 0.671610 0.612414
vt 0.628354 0.716394
vt 0.628354 0.612414
vt 0.498041 0.390083
vt 0.498041 0.286102
vt 0.346757 0.582547
vt 0.242777 0.582547
vt 0.242777 0.501248
vt 0.346757 0.501248
vt 0.819177 0.582546
vt 0.810744 0.582546
vt 0.810744 0.501248
vt 0.819177 0.501248
vt 0.819177 0.419864
vt 0.810744 0.419864
vt 0.810744 0.403690
vt 0.819177 0.403690
vt 0.693157 0.286103
vt 0.693156 0.390083
vt 0.346757 0.419864
vt 0.242777 0.419864
vt 0.242777 0.403690
vt 0.346757 0.403690
vt 0.498041 0.716394
vt 0.498041 0.612414
vt 0.159261 0.744654
vt 0.175435 0.744654
vt 0.188224 0.501248
vt 0.188224 0.419865
vt 0.188224 0.582547
vt 0.188224 0.598806
vt 0.084244 0.598806
vt 0.084244 0.582547
vt 0.443488 0.598806
vt 0.443488 0.612414
vt 0.429203 0.612414
vt 0.429203 0.598806
vt 0.256819 0.744654
vt 0.338117 0.744654
vt 0.242777 0.598806
vt 0.362809 0.799206
vt 0.354377 0.799206
vt 0.354377 0.744654
vt 0.362809 0.744654
vt 0.150829 0.799206
vt 0.150829 0.744654
vt 0.628354 0.598806
vt 0.498041 0.598806
vt 0.443488 0.582547
vt 0.671610 0.598806
vt 0.693157 0.598806
vt 0.150829 0.730368
vt 0.159261 0.730368
vt 0.401310 0.582547
vt 0.401310 0.501248
vt 0.415595 0.501248
vt 0.415595 0.582547
vt 0.401310 0.403690
vt 0.401310 0.419864
vt 0.443488 0.501248
vt 0.443488 0.419864
vt 0.443488 0.403690
vt 0.443488 0.390083
vt 0.338117 0.721936
vt 0.338117 0.730369
vt 0.256819 0.730368
vt 0.256819 0.721936
vt 0.175435 0.721936
vt 0.175435 0.730368
vt 0.159261 0.721936
vt 0.429203 0.419864
vt 0.415595 0.419864
vt 0.415595 0.403690
vt 0.429203 0.403690
vt 0.429203 0.582547
vt 0.429203 0.501248
vt 0.429203 0.390083
vt 0.173939 0.501248
vt 0.173939 0.419865
vt 0.084244 0.613092
vt 0.188224 0.613091
vt 0.354377 0.730369
vt 0.362809 0.730369
vt 0.415595 0.686526
vt 0.401310 0.686526
vt 0.188224 0.403690
vt 0.148918 0.918705
vt 0.415595 0.598806
vt 0.354377 0.721936
vt 0.346757 0.598806
vt 0.401310 0.598806
vt 0.431855 0.582547
vt 0.431855 0.686526
vt 0.810744 0.598806
vt 0.706764 0.598806
vt 0.173939 0.582547
vt 0.928332 0.598806
vt 0.819177 0.598806
vt 0.938675 0.609149
vt 0.084244 0.403690
vt 0.084244 0.389405
vt 0.188224 0.389405
vt 0.431769 0.315884
vt 0.431769 0.419864
vt 0.415595 0.315884
vt 0.401310 0.315884
vt 0.084244 0.419865
vt 0.930712 0.746016
vt 0.822811 0.746016
vt 0.822811 0.734438
vt 0.930712 0.734438
vt 0.714910 0.746016
vt 0.714910 0.734438
vt 0.822811 0.656056
vn 0.0000 -1.0000 0.0000
vn 1.0000 0.0000 0.0000
vn -0.0000 0.0000 1.0000
vn -1.0000 -0.0000 -0.0000
vn 0.0000 0.0000 -1.0000
vn -0.5627 0.8267 -0.0000
vn 0.5627 0.8267 0.0000
vn -0.0000 0.3493 0.9370
vn 0.0000 1.0000 0.0000
vn 0.0000 0.3493 -0.9370
usemtl Material
s off
f 131/1/1 126/2/1 3/3/1 28/4/1
f 127/5/1 8/6/1 16/7/1 129/8/1
f 88/9/2 29/10/2 6/11/2 82/12/2
f 136/13/3 128/14/3 7/15/3 83/16/3
f 90/17/4 38/18/4 8/19/4 84/20/4
f 140/21/5 125/22/5 4/23/5 105/24/5
f 162/25/5 147/26/5 9/27/5 106/28/5
f 158/29/3 150/30/3 12/31/3 86/32/3
f 30/33/1 7/34/1 18/35/1 33/36/1
f 153/37/1 148/38/1 10/39/1 31/40/1
f 25/41/3 24/42/3 18/43/3 26/44/3
f 149/45/1 11/46/1 15/47/1 151/48/1
f 128/14/1 12/31/1 17/49/1 130/50/1
f 43/51/1 5/52/1 13/53/1 44/54/1
f 150/30/1 6/55/1 14/56/1 152/57/1
f 48/58/6 49/59/6 24/60/6 23/61/6
f 34/62/7 48/63/7 23/64/7 20/65/7
f 44/54/2 13/53/2 19/66/2 45/67/2
f 20/68/3 25/41/3 26/44/3 14/69/3
f 33/36/4 18/35/4 24/60/4 49/59/4
f 23/70/8 24/42/8 25/41/8 20/68/8
f 40/71/4 33/36/4 49/59/4 50/72/4
f 14/73/2 32/74/2 34/62/2 20/65/2
f 45/67/7 47/75/7 48/63/7 34/62/7
f 36/76/2 46/77/2 51/78/2 52/79/2
f 6/11/1 29/10/1 32/74/1 14/73/1
f 154/80/1 153/37/1 31/40/1 39/81/1
f 38/18/1 30/33/1 33/36/1 40/71/1
f 83/82/4 7/34/4 30/33/4 87/83/4
f 89/84/2 43/51/2 29/10/2 88/9/2
f 132/85/1 131/1/1 28/4/1 37/86/1
f 125/22/1 132/85/1 37/86/1 4/23/1
f 81/87/2 5/52/2 43/51/2 89/84/2
f 8/19/1 38/18/1 40/71/1 16/88/1
f 147/26/1 154/80/1 39/81/1 9/27/1
f 21/89/6 22/90/6 50/72/6 47/91/6
f 19/66/7 21/92/7 47/75/7 45/67/7
f 16/88/4 40/71/4 50/72/4 22/90/4
f 32/74/2 44/54/2 45/67/2 34/62/2
f 29/10/1 43/51/1 44/54/1 32/74/1
f 87/83/4 30/33/4 38/18/4 90/17/4
f 46/93/6 36/94/6 48/58/6 47/91/6
f 36/94/6 35/95/6 49/59/6 48/58/6
f 35/95/6 41/96/6 50/72/6 49/59/6
f 41/96/6 46/93/6 47/91/6 50/72/6
f 51/97/1 54/98/1 58/99/1 55/100/1
f 46/101/5 41/102/5 54/98/5 51/97/5
f 35/103/3 36/104/3 52/105/3 53/106/3
f 41/107/4 35/108/4 53/109/4 54/110/4
f 58/111/4 57/112/4 61/113/4 62/114/4
f 53/106/1 52/105/1 56/115/1 57/116/1
f 54/110/1 53/109/1 57/112/1 58/111/1
f 52/79/1 51/78/1 55/117/1 56/118/1
f 59/119/9 62/120/9 66/121/9 63/122/9
f 56/118/2 55/117/2 59/123/2 60/124/2
f 55/100/5 58/99/5 62/120/5 59/119/5
f 57/116/3 56/115/3 60/125/3 61/126/3
f 65/127/5 64/128/5 68/129/5 69/130/5
f 61/126/9 60/125/9 64/128/9 65/127/9
f 62/114/9 61/113/9 65/131/9 66/132/9
f 60/124/9 59/123/9 63/133/9 64/134/9
f 67/135/9 70/136/9 69/130/9 68/129/9
f 66/132/2 65/131/2 69/130/2 70/136/2
f 64/134/4 63/133/4 67/135/4 68/129/4
f 63/122/3 66/121/3 70/136/3 67/135/3
f 98/137/4 77/138/4 80/139/4 101/140/4
f 102/141/2 71/142/2 79/143/2 100/144/2
f 100/144/2 79/143/2 78/145/2 99/146/2
f 104/147/4 73/148/4 77/138/4 98/137/4
f 161/149/3 155/150/3 76/151/3 97/152/3
f 157/153/5 156/154/5 75/155/5 85/156/5
f 135/157/5 133/158/5 74/159/5 84/160/5
f 101/140/4 80/139/4 74/161/4 105/162/4
f 139/163/3 134/164/3 73/165/3 104/166/3
f 99/146/2 78/145/2 72/167/2 103/168/2
f 127/5/5 135/157/5 84/160/5 8/6/5
f 149/45/5 157/153/5 85/156/5 11/46/5
f 77/138/4 87/83/4 90/17/4 80/139/4
f 71/142/2 81/87/2 89/84/2 79/143/2
f 79/143/2 89/84/2 88/9/2 78/145/2
f 73/148/4 83/82/4 87/83/4 77/138/4
f 136/13/9 83/16/9 96/169/9 138/170/9
f 80/139/4 90/17/4 84/20/4 74/161/4
f 134/164/1 76/151/1 92/171/1 137/172/1
f 78/145/2 88/9/2 82/12/2 72/167/2
f 159/173/5 93/174/5 111/175/5 164/176/5
f 109/177/2 111/178/2 123/179/2 121/180/2
f 158/29/9 86/32/9 91/181/9 160/182/9
f 155/150/1 72/183/1 93/174/1 159/173/1
f 72/184/2 82/185/2 95/186/2 93/187/2
f 83/16/4 73/188/4 94/189/4 96/169/4
f 27/190/2 99/146/2 103/168/2 2/191/2
f 2/191/2 103/168/2 111/178/2 109/177/2
f 37/86/4 101/140/4 105/162/4 4/23/4
f 148/38/1 2/191/1 109/177/1 163/192/1
f 3/3/4 104/147/4 98/137/4 28/4/4
f 42/193/2 100/144/2 99/146/2 27/190/2
f 1/194/2 102/141/2 100/144/2 42/193/2
f 28/4/4 98/137/4 101/140/4 37/86/4
f 156/154/5 162/25/5 106/28/5 75/155/5
f 133/158/5 140/21/5 105/24/5 74/159/5
f 96/169/4 94/189/4 116/195/4 118/196/4
f 164/197/9 110/198/9 122/199/9 168/200/9
f 161/149/9 97/152/9 110/198/9 164/197/9
f 139/163/9 104/166/9 112/201/9 142/202/9
f 126/2/1 10/39/1 107/203/1 141/204/1
f 104/147/4 3/3/4 108/205/4 112/206/4
f 165/207/3 166/208/3 113/209/3 114/210/3
f 143/211/3 144/212/3 118/196/3 116/213/3
f 145/214/3 146/215/3 124/216/3 120/217/3
f 167/218/3 168/200/3 122/199/3 119/219/3
f 141/204/1 107/203/1 119/219/1 145/214/1
f 160/182/9 91/181/9 113/209/9 166/208/9
f 112/206/4 108/205/4 120/217/4 124/220/4
f 137/172/1 92/171/1 114/221/1 143/222/1
f 163/192/1 109/177/1 121/180/1 167/218/1
f 138/170/9 96/169/9 118/196/9 144/212/9
f 123/223/2 111/175/2 93/174/2 115/224/2
f 93/187/2 95/186/2 117/225/2 115/226/2
f 110/198/9 142/202/9 146/215/9 122/199/9
f 91/181/9 138/170/9 144/212/9 113/209/9
f 168/200/4 165/227/4 159/228/4 164/197/4
f 108/205/1 141/204/1 145/214/1 120/217/1
f 119/219/3 122/199/3 146/215/3 145/214/3
f 114/210/3 113/209/3 144/212/3 143/211/3
f 3/3/1 126/2/1 141/204/1 108/205/1
f 97/152/9 139/163/9 142/202/9 110/198/9
f 75/155/5 106/28/5 140/21/5 133/158/5
f 73/165/1 134/164/1 137/172/1 94/229/1
f 86/32/9 136/13/9 138/170/9 91/181/9
f 11/46/5 85/156/5 135/157/5 127/5/5
f 97/152/3 76/151/3 134/164/3 139/163/3
f 85/156/5 75/155/5 133/158/5 135/157/5
f 9/27/1 39/81/1 132/85/1 125/22/1
f 39/81/1 31/40/1 131/1/1 132/85/1
f 7/15/1 128/14/1 130/50/1 18/230/1
f 106/28/5 9/27/5 125/22/5 140/21/5
f 86/32/3 12/31/3 128/14/3 136/13/3
f 11/46/1 127/5/1 129/8/1 15/47/1
f 31/40/1 10/39/1 126/2/1 131/1/1
f 107/203/1 163/192/1 167/218/1 119/219/1
f 95/186/9 160/182/9 166/208/9 117/225/9
f 121/180/3 123/231/3 168/200/3 167/218/3
f 115/232/3 117/225/3 166/208/3 165/207/3
f 103/233/9 161/149/9 164/197/9 111/234/9
f 165/227/3 168/200/3 123/235/3 115/236/3
f 71/237/5 102/238/5 162/25/5 156/154/5
f 10/39/1 148/38/1 163/192/1 107/203/1
f 76/151/1 155/150/1 159/173/1 92/171/1
f 82/185/9 158/29/9 160/182/9 95/186/9
f 92/171/1 159/173/1 165/239/1 114/221/1
f 5/240/5 81/241/5 157/153/5 149/45/5
f 81/241/5 71/237/5 156/154/5 157/153/5
f 103/233/3 72/183/3 155/150/3 161/149/3
f 1/194/1 42/193/1 154/80/1 147/26/1
f 42/193/1 27/190/1 153/37/1 154/80/1
f 12/31/1 150/30/1 152/57/1 17/49/1
f 5/240/1 149/45/1 151/48/1 13/242/1
f 27/190/1 2/191/1 148/38/1 153/37/1
f 82/185/3 6/55/3 150/30/3 158/29/3
f 102/238/5 1/194/5 147/26/5 162/25/5
f 94/229/4 112/243/4 124/244/4 116/245/4
f 116/246/3 124/247/3 146/215/3 143/248/3
f 146/215/2 142/202/2 137/249/2 143/248/2
f 94/229/5 137/172/5 142/250/5 112/243/5
f 13/251/5 15/252/5 169/253/5 19/254/5
f 15/252/5 16/255/5 22/256/5 169/253/5
f 22/256/10 21/257/10 19/254/10 169/253/10
