# Blender v2.79 (sub 0) OBJ File: 'trough.blend'
# www.blender.org
mtllib trough.mtl
o Cube
v 1.000000 -1.000000 -2.519222
v 1.000000 -1.000000 2.519222
v -1.000000 -1.000000 2.519222
v -1.000000 -1.000000 -2.519223
v 1.285862 1.000000 -3.239368
v 1.285861 1.000000 3.239372
v -1.285862 1.000000 3.239369
v -1.285861 1.000000 -3.239371
v 0.854055 1.000000 -2.863125
v 0.854054 1.000000 2.863129
v -0.854054 1.000000 -2.863127
v -0.854055 1.000000 2.863126
v 0.664189 -0.871187 -2.226620
v 0.664188 -0.871187 2.226623
v -0.664188 -0.871187 -2.226622
v -0.664189 -0.871187 2.226621
vn 0.0000 -1.0000 0.0000
vn 0.0000 1.0000 0.0000
vn 0.9899 -0.1415 0.0000
vn -0.0000 -0.3388 0.9409
vn -0.9899 -0.1415 -0.0000
vn 0.0000 -0.3388 -0.9409
vn 0.9949 0.1009 0.0000
vn -0.0000 0.3220 0.9467
vn 0.0000 0.3220 -0.9467
vn -0.9949 0.1009 -0.0000
usemtl Material
s off
f 1//1 2//1 3//1 4//1
f 8//2 7//2 12//2 11//2
f 1//3 5//3 6//3 2//3
f 2//4 6//4 7//4 3//4
f 3//5 7//5 8//5 4//5
f 5//6 1//6 4//6 8//6
f 11//7 12//7 16//7 15//7
f 5//2 8//2 11//2 9//2
f 7//2 6//2 10//2 12//2
f 6//2 5//2 9//2 10//2
f 13//2 15//2 16//2 14//2
f 9//8 11//8 15//8 13//8
f 12//9 10//9 14//9 16//9
f 10//10 9//10 13//10 14//10
